<svg width="122" height="32" viewBox="0 0 122 32" fill="none" xmlns="http://www.w3.org/2000/svg">
<path d="M23.7778 22.3838C23.7778 23.9375 23.4839 25.3092 22.896 26.499C22.3081 27.6888 21.5173 28.6686 20.5234 29.4385C19.3477 30.3623 18.0529 31.0202 16.6392 31.4121C15.2394 31.804 13.4548 32 11.2852 32H0.199219V0.736816H9.4585C11.7401 0.736816 13.4478 0.820801 14.5815 0.98877C15.7153 1.15674 16.8001 1.50667 17.8359 2.03857C18.9837 2.64046 19.8166 3.41732 20.3345 4.36914C20.8524 5.30697 21.1113 6.43376 21.1113 7.74951C21.1113 9.23324 20.7334 10.5 19.9775 11.5498C19.2217 12.5856 18.2139 13.4185 16.9541 14.0483V14.2163C19.0677 14.6502 20.7334 15.5811 21.9512 17.0088C23.1689 18.4225 23.7778 20.2142 23.7778 22.3838ZM16.7861 8.29541C16.7861 7.53955 16.6602 6.90267 16.4082 6.38477C16.1562 5.86686 15.7503 5.44694 15.1904 5.125C14.5326 4.74707 13.7347 4.51611 12.7969 4.43213C11.859 4.33415 10.6973 4.28516 9.31152 4.28516H4.35645V13.3135H9.73145C11.0332 13.3135 12.069 13.2505 12.8389 13.1245C13.6087 12.9845 14.3226 12.7046 14.9805 12.2847C15.6383 11.8647 16.1003 11.3258 16.3662 10.668C16.6462 9.99609 16.7861 9.20524 16.7861 8.29541ZM19.4526 22.5518C19.4526 21.292 19.2637 20.2912 18.8857 19.5493C18.5078 18.8075 17.8219 18.1776 16.8281 17.6597C16.1562 17.3097 15.3374 17.0858 14.3716 16.9878C13.4198 16.8758 12.258 16.8198 10.8862 16.8198H4.35645V28.4517H9.85742C11.6771 28.4517 13.1678 28.3607 14.3296 28.1787C15.4914 27.9827 16.4432 27.6328 17.1851 27.1289C17.9689 26.583 18.5428 25.9601 18.9067 25.2603C19.2707 24.5604 19.4526 23.6576 19.4526 22.5518ZM40.7007 32H28.355V28.8086H32.4492V3.92822H28.355V0.736816H40.7007V3.92822H36.6064V28.8086H40.7007V32ZM71.355 22.3838C71.355 23.9375 71.061 25.3092 70.4731 26.499C69.8853 27.6888 69.0944 28.6686 68.1006 29.4385C66.9248 30.3623 65.63 31.0202 64.2163 31.4121C62.8166 31.804 61.0319 32 58.8623 32H47.7764V0.736816H57.0356C59.3172 0.736816 61.0249 0.820801 62.1587 0.98877C63.2925 1.15674 64.3773 1.50667 65.4131 2.03857C66.5609 2.64046 67.3937 3.41732 67.9116 4.36914C68.4295 5.30697 68.6885 6.43376 68.6885 7.74951C68.6885 9.23324 68.3105 10.5 67.5547 11.5498C66.7988 12.5856 65.791 13.4185 64.5312 14.0483V14.2163C66.6449 14.6502 68.3105 15.5811 69.5283 17.0088C70.7461 18.4225 71.355 20.2142 71.355 22.3838ZM64.3633 8.29541C64.3633 7.53955 64.2373 6.90267 63.9854 6.38477C63.7334 5.86686 63.3275 5.44694 62.7676 5.125C62.1097 4.74707 61.3118 4.51611 60.374 4.43213C59.4362 4.33415 58.2744 4.28516 56.8887 4.28516H51.9336V13.3135H57.3086C58.6104 13.3135 59.6462 13.2505 60.416 13.1245C61.1859 12.9845 61.8997 12.7046 62.5576 12.2847C63.2155 11.8647 63.6774 11.3258 63.9434 10.668C64.2233 9.99609 64.3633 9.20524 64.3633 8.29541ZM67.0298 22.5518C67.0298 21.292 66.8408 20.2912 66.4629 19.5493C66.085 18.8075 65.3991 18.1776 64.4053 17.6597C63.7334 17.3097 62.9146 17.0858 61.9487 16.9878C60.9969 16.8758 59.8351 16.8198 58.4634 16.8198H51.9336V28.4517H57.4346C59.2542 28.4517 60.745 28.3607 61.9067 28.1787C63.0685 27.9827 64.0203 27.6328 64.7622 27.1289C65.5461 26.583 66.12 25.9601 66.4839 25.2603C66.8478 24.5604 67.0298 23.6576 67.0298 22.5518ZM97.0332 32H77.2549V0.736816H81.4121V28.3047H97.0332V32ZM121.788 32H101.19V0.736816H121.788V4.43213H105.348V12.9985H121.788V16.6938H105.348V28.3047H121.788V32Z" fill="#393F62"/>
</svg>
