<svg width="148" height="148" viewBox="0 0 148 148" fill="none" xmlns="http://www.w3.org/2000/svg">
<path d="M65.86 7.4C83.62 7.4 96.94 9.62 105.82 14.8C115.44 19.98 119.88 28.86 119.88 41.44C119.88 48.84 117.66 55.5 114.7 60.68C113.022 63.2103 110.843 65.3696 108.297 67.0242C105.752 68.6789 102.894 69.7938 99.9 70.3C104.13 71.2881 108.143 73.0438 111.74 75.48C114.7 77.7 117.66 81.4 119.88 85.1C122.196 90.4603 123.21 96.2926 122.84 102.12C123.102 107.466 122.099 112.799 119.913 117.685C117.727 122.57 114.42 126.872 110.26 130.24C99.7258 137.763 86.9187 141.423 74 140.6H24.42V7.4H65.86ZM68.82 59.94C76.96 59.94 82.88 59.2 85.84 56.24C89.54 54.02 91.02 49.58 91.02 45.14C91.02 39.96 88.8 36.26 85.1 34.04C81.4 31.82 75.48 30.34 67.34 30.34H52.54V59.94H68.82ZM52.54 82.14V118.4H71.04C79.18 118.4 85.84 116.18 88.8 113.22C92.5 109.52 93.98 105.82 93.98 99.9C94.0682 97.6632 93.6478 95.4356 92.7506 93.3847C91.8534 91.3339 90.5026 89.5133 88.8 88.06C85.1 85.1 79.18 83.62 70.3 83.62H51.8L52.54 82.14Z" fill="#61615F"/>
</svg>
