<svg width="134" height="134" viewBox="0 0 134 134" fill="none" xmlns="http://www.w3.org/2000/svg">
<path d="M79.7897 16.9575C84.3838 11.981 86.6778 9.49584 89.1198 8.0405C92.0026 6.31496 95.2892 5.37964 98.6485 5.32875C102.008 5.27787 105.321 6.11323 108.255 7.75067C110.74 9.132 113.108 11.5493 117.844 16.384C122.58 21.2248 124.948 23.6483 126.293 26.1828C127.897 29.2008 128.712 32.5752 128.664 35.9926C128.615 39.4101 127.704 42.7599 126.015 45.7312C124.597 48.2225 122.161 50.572 117.283 55.2648L59.2978 111.116C50.0602 120.015 45.4413 124.461 39.6693 126.718C33.8973 128.975 27.5518 128.802 14.8608 128.475L13.1342 128.426C9.27384 128.328 7.33751 128.278 6.22134 127.002C5.09284 125.725 5.24701 123.758 5.55534 119.824L5.72184 117.69C6.58518 106.615 7.01684 101.077 9.17518 96.0943C11.3335 91.1117 15.0705 87.0725 22.5322 78.988L79.7897 16.9575ZM73.1667 17.6667L116.333 60.8333ZM79.3333 128.667H128.667Z" fill="#61615F"/>
<path d="M73.1667 17.6667L116.333 60.8333M79.3333 128.667H128.667M79.7897 16.9575C84.3838 11.981 86.6778 9.49584 89.1198 8.0405C92.0026 6.31496 95.2892 5.37964 98.6485 5.32875C102.008 5.27787 105.321 6.11323 108.255 7.75067C110.74 9.132 113.108 11.5493 117.844 16.384C122.58 21.2248 124.948 23.6483 126.293 26.1828C127.897 29.2008 128.712 32.5752 128.664 35.9926C128.615 39.4101 127.704 42.7599 126.015 45.7312C124.597 48.2225 122.161 50.572 117.283 55.2648L59.2978 111.116C50.0602 120.015 45.4413 124.461 39.6693 126.718C33.8973 128.975 27.5518 128.802 14.8608 128.475L13.1342 128.426C9.27384 128.328 7.33751 128.278 6.22134 127.002C5.09284 125.725 5.24701 123.758 5.55534 119.824L5.72184 117.69C6.58518 106.615 7.01684 101.077 9.17518 96.0943C11.3335 91.1117 15.0705 87.0725 22.5322 78.988L79.7897 16.9575Z" stroke="#61615F" stroke-width="9.25" stroke-linecap="round" stroke-linejoin="round"/>
</svg>
