<svg width="148" height="148" viewBox="0 0 148 148" fill="none" xmlns="http://www.w3.org/2000/svg">
<path d="M22.2 37C22.2 33.0748 23.7592 29.3104 26.5348 26.5348C29.3103 23.7593 33.0747 22.2 37 22.2H44.4V48.1C44.4 51.0439 45.5694 53.8672 47.6511 55.9489C49.7327 58.0305 52.556 59.2 55.5 59.2H85.1C88.0439 59.2 90.8672 58.0305 92.9488 55.9489C95.0305 53.8672 96.2 51.0439 96.2 48.1V22.2H99.0046C102.929 22.2008 106.693 23.7607 109.468 26.5364L121.464 38.5318C124.239 41.3067 125.799 45.0705 125.8 48.9954V111C125.8 114.925 124.241 118.69 121.465 121.465C118.69 124.241 114.925 125.8 111 125.8V85.1C111 82.1561 109.83 79.3328 107.749 77.2511C105.667 75.1695 102.844 74 99.9 74H48.1C45.156 74 42.3327 75.1695 40.2511 77.2511C38.1694 79.3328 37 82.1561 37 85.1V125.8C33.0747 125.8 29.3103 124.241 26.5348 121.465C23.7592 118.69 22.2 114.925 22.2 111V37ZM88.8 22.2H51.8V48.1C51.8 49.0813 52.1898 50.0224 52.8837 50.7163C53.5775 51.4102 54.5187 51.8 55.5 51.8H85.1C86.0813 51.8 87.0224 51.4102 87.7162 50.7163C88.4101 50.0224 88.8 49.0813 88.8 48.1V22.2ZM103.6 85.1V125.8H44.4V85.1C44.4 84.1187 44.7898 83.1776 45.4837 82.4837C46.1775 81.7898 47.1187 81.4 48.1 81.4H99.9C100.881 81.4 101.822 81.7898 102.516 82.4837C103.21 83.1776 103.6 84.1187 103.6 85.1Z" fill="#61615F"/>
</svg>
