<svg width="109" height="109" viewBox="0 0 109 109" fill="none" xmlns="http://www.w3.org/2000/svg">
<path d="M77.5833 68.3333H72.7117L70.985 66.6683C77.2372 59.4165 80.6735 50.1583 80.6667 40.5833C80.6667 32.6556 78.3158 24.9059 73.9114 18.3142C69.507 11.7226 63.2468 6.58498 55.9226 3.55116C48.5983 0.517352 40.5389 -0.276431 32.7635 1.27019C24.9881 2.81682 17.8459 6.63438 12.2402 12.2401C6.6344 17.8459 2.81683 24.9881 1.27021 32.7635C-0.276416 40.5389 0.517367 48.5983 3.55118 55.9226C6.58499 63.2468 11.7226 69.507 18.3142 73.9114C24.9059 78.3158 32.6556 80.6667 40.5833 80.6667C50.5117 80.6667 59.6383 77.0283 66.6683 70.985L68.3333 72.7117V77.5833L99.1667 108.355L108.355 99.1667L77.5833 68.3333ZM40.5833 68.3333C25.2284 68.3333 12.8334 55.9383 12.8334 40.5833C12.8334 25.2283 25.2284 12.8333 40.5833 12.8333C55.9383 12.8333 68.3333 25.2283 68.3333 40.5833C68.3333 55.9383 55.9383 68.3333 40.5833 68.3333Z" fill="#61615F"/>
</svg>
