<svg width="116" height="118" viewBox="0 0 116 118" fill="none" xmlns="http://www.w3.org/2000/svg">
<path d="M107.805 77.5833L96.5817 69.5667C98.4317 62.9067 98.555 55.6917 96.5817 48.4767L107.805 40.5833L98.8634 25.1667L86.345 30.84C81.4734 25.9067 75.3067 22.0833 68.0917 20.295L66.8584 6.66667H48.975L47.7417 20.295C40.5267 22.0833 34.36 25.9067 29.4884 30.84L16.97 25.1667L8.02837 40.5833L19.2517 48.4767C17.2784 55.6917 17.4017 62.9067 19.2517 69.5667L8.02837 77.5833L16.97 93L29.4884 87.265C34.36 92.1367 40.5267 95.8367 47.7417 97.7483L48.975 111.5H66.8584L68.0917 97.7483C75.3067 95.8367 81.4734 92.1367 86.345 87.265L98.8634 93L107.805 77.5833ZM70.25 0.5C71.915 0.5 73.3334 1.73333 73.3334 3.33667L74.4434 15.9167C79.13 17.6433 83.3234 20.1717 87.085 23.1933L98.4934 17.8283C99.9117 17.0883 101.7 17.5817 102.563 19L114.897 40.5833C115.76 41.8783 115.267 43.6667 113.91 44.5917L103.612 51.8067C104.413 56.74 104.352 61.6117 103.612 66.36L113.91 73.575C115.267 74.5 115.76 76.2883 114.897 77.5833L102.563 99.1667C101.7 100.462 99.9117 100.955 98.4934 100.215L87.085 94.9117C83.3234 97.9333 79.13 100.4 74.4434 102.25L73.3334 114.583C73.3334 116.372 71.915 117.667 70.25 117.667H45.5834C44.7656 117.667 43.9814 117.342 43.4031 116.764C42.8249 116.185 42.5 115.401 42.5 114.583L41.39 102.25C36.7034 100.4 32.51 97.9333 28.7484 94.9117L17.34 100.215C15.9217 100.955 14.1334 100.462 13.27 99.1667L0.936703 77.5833C0.0733696 76.2883 0.566703 74.5 1.92337 73.575L12.2217 66.36C11.4817 61.6117 11.42 56.74 12.2217 51.8067L1.92337 44.5917C0.566703 43.6667 0.0733696 41.8783 0.936703 40.5833L13.27 19C14.1334 17.5817 15.9217 17.0883 17.34 17.8283L28.7484 23.1933C32.51 20.1717 36.7034 17.6433 41.39 15.9167L42.5 3.33667C42.5 1.73333 43.9184 0.5 45.5834 0.5H70.25ZM57.9167 37.5C63.641 37.5 69.1308 39.774 73.1784 43.8216C77.2261 47.8693 79.5 53.3591 79.5 59.0833C79.5 64.8076 77.2261 70.2974 73.1784 74.3451C69.1308 78.3927 63.641 80.6667 57.9167 80.6667C52.1924 80.6667 46.7026 78.3927 42.655 74.3451C38.6073 70.2974 36.3334 64.8076 36.3334 59.0833C36.3334 53.3591 38.6073 47.8693 42.655 43.8216C46.7026 39.774 52.1924 37.5 57.9167 37.5ZM57.9167 43.6667C53.8279 43.6667 49.9067 45.2909 47.0155 48.1821C44.1243 51.0733 42.5 54.9946 42.5 59.0833C42.5 63.1721 44.1243 67.0934 47.0155 69.9846C49.9067 72.8757 53.8279 74.5 57.9167 74.5C62.0055 74.5 65.9267 72.8757 68.8179 69.9846C71.7091 67.0934 73.3334 63.1721 73.3334 59.0833C73.3334 54.9946 71.7091 51.0733 68.8179 48.1821C65.9267 45.2909 62.0055 43.6667 57.9167 43.6667Z" fill="#61615F"/>
</svg>
