<svg width="148" height="148" viewBox="0 0 148 148" fill="none" xmlns="http://www.w3.org/2000/svg">
<g clip-path="url(#clip0_4002_2)">
<path d="M111 114.083C113.376 114.085 115.66 115 117.379 116.639C119.098 118.278 120.121 120.516 120.235 122.889C120.349 125.262 119.546 127.587 117.992 129.384C116.438 131.181 114.252 132.311 111.888 132.54L111 132.583H37C34.6245 132.582 32.3405 131.667 30.6213 130.028C28.9021 128.389 27.8794 126.151 27.7653 123.778C27.6511 121.405 28.4542 119.079 30.0081 117.283C31.562 115.486 33.7476 114.356 36.112 114.126L37 114.083H111ZM104.833 15.4167C107.133 15.4168 109.35 16.2733 111.052 17.8193C112.754 19.3653 113.819 21.4898 114.04 23.7787L114.083 24.6667V67.8333C114.092 78.345 109.97 88.4393 102.607 95.9414C95.244 103.443 85.2286 107.753 74.7185 107.941C64.2085 108.13 54.0451 104.182 46.4178 96.9488C38.7906 89.7155 34.31 79.7754 33.9413 69.2702L33.9167 67.8333V24.6667C33.9179 22.2912 34.8329 20.0072 36.4722 18.288C38.1115 16.5687 40.3494 15.5461 42.7221 15.4319C45.0949 15.3178 47.4206 16.1209 49.2174 17.6747C51.0142 19.2286 52.1443 21.4142 52.3735 23.7787L52.4167 24.6667V67.8333C52.4086 73.4604 54.5984 78.8682 58.5194 82.9042C62.4405 86.9402 67.7828 89.2853 73.4078 89.4397C79.0328 89.5941 84.4956 87.5456 88.6322 83.7307C92.7688 79.9159 95.2519 74.6364 95.5525 69.0173L95.5833 67.8333V24.6667C95.5833 22.2134 96.5579 19.8606 98.2926 18.1259C100.027 16.3912 102.38 15.4167 104.833 15.4167Z" fill="#61615F"/>
</g>
<defs>
<clipPath id="clip0_4002_2">
<rect width="148" height="148" fill="white"/>
</clipPath>
</defs>
</svg>
